<?xml version="1.0" encoding="UTF-8"?>
<svg id="Layer_2" data-name="Layer 2" xmlns="http://www.w3.org/2000/svg" viewBox="0 0 2038.31 499.54">
  <defs>
    <style>
      .cls-1 {
        fill: #ff2c32; /* red emblem */
      }

      .cls-2 {
        fill: #ffffff; /* white wordmark (for dark backgrounds) */
      }

      .cls-1, .cls-2 {
        stroke-width: 0px;
      }
    </style>
  </defs>
  <g id="_Слой_1" data-name="Слой 1">
    <g>
      <path class="cls-2" d="m941.53,101.16c-33.92-33.07-76.13-49.58-126.68-49.58h-125.46v347.04h125.46c50.55,0,92.76-16.51,126.68-49.58,33.86-33.01,50.79-74.37,50.79-123.94s-16.93-90.93-50.79-123.94Zm-49.88,200.32c-19.79,19.79-45.44,29.72-76.8,29.72h-54.57V119.01h54.57c31.37,0,57.01,9.93,76.8,29.72,19.86,19.85,29.78,45.31,29.78,76.38s-9.93,56.52-29.78,76.38Z"/>
      <path class="cls-2" d="m1098.91,11.63c-8.22-7.74-18.82-11.63-31.73-11.63s-23.02,3.96-31.49,11.88c-8.4,7.98-12.61,17.85-12.61,29.78s4.2,22.29,12.61,30.21c8.47,7.98,18.94,11.94,31.49,11.94s23.51-3.96,31.73-11.94c8.28-7.92,12.42-17.97,12.42-30.21s-4.14-22.23-12.42-30.03Zm-67.42,114.32v272.67h70.89V125.95h-70.89Z"/>
      <path class="cls-2" d="m1377.61,148.73c-17.54-19.12-41.66-28.75-72.42-28.75-35.99,0-64.32,14.37-84.78,43.12v-37.15h-70.89v272.67h70.89v-143.25c0-45.31,20.46-67.97,61.51-67.97,18.15,0,31.18,4.63,39.16,13.89,7.92,9.26,11.88,23.14,11.88,41.66v155.67h70.89v-171.02c0-33.38-8.77-59.69-26.25-78.87Z"/>
      <path class="cls-2" d="m1515.44,11.63c-8.28-7.74-18.82-11.63-31.73-11.63s-23.08,3.96-31.49,11.88c-8.4,7.98-12.67,17.85-12.67,29.78s4.26,22.29,12.67,30.21c8.4,7.98,18.94,11.94,31.49,11.94s23.45-3.96,31.73-11.94c8.28-7.92,12.42-17.97,12.42-30.21s-4.14-22.23-12.42-30.03Zm-67.42,114.32v272.67h70.89V125.95h-70.89Z"/>
      <path class="cls-2" d="m1687.74,72.9c10.23,0,21.62,1.83,34.23,5.42l9.44,2.5,12.85-57.49c-18.15-8.28-39.65-12.42-64.44-12.42-31.06,0-57.37,9.32-78.87,28.02-21.5,18.7-32.22,46.23-32.22,82.59v277.12h70.89v-185.21l-61.39-20.53h152.14v-66.94h-90.75v-1.04c0-34.66,16.08-52.01,48.11-52.01Z"/>
      <path class="cls-2" d="m1962.43,125.95l-67.91,159.63-67.42-159.63h-75.4l105.12,236.5-61.09,137.1h75.4l167.18-373.59h-75.89Z"/>
      <path class="cls-1" d="m581.51,100.46c-5.14-6.58-10.68-12.83-16.56-18.69-36.69-36.69-87.37-59.37-143.34-59.37H0l99.29,117.02c20.83,24.55,50.94,39.32,83.11,40.78l59.61,2.69c10.19.46,19.56-5.5,23.51-14.9,1.26-3,2.48-5.65,3.34-7.12,14.15-24.09,41.05-39.79,86.05-39.79,73.84,0,168.48,42.31,168.48,94.49s-94.64,94.47-168.48,94.47c-41.82,0-68.02-13.57-82.86-34.82-2.74-3.92-5.1-8.11-7.09-12.51-4.13-9.13-13.29-14.91-23.29-14.46l-48.19,2.17,21.04,24.8,73.81,89.67c16.39,19.94,36.81,35.67,59.61,46.41,22.77,10.74,47.89,16.51,73.69,16.51,101.01,0,184.76-73.88,200.17-170.55,1.65-10.47,2.54-21.19,2.54-32.14,0-47-15.99-90.26-42.82-124.67Z"/>
    </g>
  </g>
</svg>
