<?xml version="1.0" encoding="UTF-8"?>
<svg xmlns="http://www.w3.org/2000/svg" viewBox="0 0 1296.49 841.9">
  <defs><style>.cls-1{fill:#ff2c32;stroke-width:0}</style></defs>
  <path class="cls-1" d="m1207.57,162.11c-10.67-13.66-22.17-26.65-34.38-38.82C1097.01,47.11,991.76,0,875.54,0H0l206.2,243c43.26,50.98,105.78,81.66,172.58,84.68l123.78,5.6c21.15.96,40.61-11.43,48.83-30.95,2.63-6.24,5.14-11.74,6.93-14.78,29.38-50.02,85.24-82.63,178.69-82.63,153.33,0,349.86,87.86,349.86,196.23s-196.53,196.18-349.86,196.18c-86.85,0-141.25-28.19-172.08-72.32-5.7-8.15-10.58-16.83-14.72-25.99-8.57-18.95-27.59-30.96-48.37-30.03l-100.07,4.51,43.69,51.5,153.28,186.22c34.03,41.41,76.44,74.07,123.78,96.38,47.29,22.31,99.45,34.29,153.02,34.29,209.75,0,383.67-153.42,415.68-354.17,3.42-21.73,5.27-44,5.27-66.74,0-97.61-33.19-187.45-88.91-258.88Z"/>
</svg>
